HIERARCHY
ROOT Hips
{
    OFFSET 0.000000 0.000000 0.000000
    CHANNELS 6 Xposition Yposition Zposition Zrotation Xrotation Yrotation
    JOINT Spine
    {
        OFFSET -0.000000 7.883683 0.000000
        CHANNELS 3 Zrotation Xrotation Yrotation
        JOINT Spine1
        {
            OFFSET -0.000000 24.776327 0.000000
            CHANNELS 3 Zrotation Xrotation Yrotation
            JOINT Neck
            {
                OFFSET -0.000000 24.674574 2.243143
                CHANNELS 3 Zrotation Xrotation Yrotation
                JOINT Head
                {
                    OFFSET -0.000000 13.459947 -1.922849
                    CHANNELS 3 Zrotation Xrotation Yrotation
                    End Site
                    {
                        OFFSET -0.000000 24.035618 0.000000
                    }
                }
            }
            JOINT LeftShoulder
            {
                OFFSET 3.810223 22.323311 -0.325006
                CHANNELS 3 Zrotation Xrotation Yrotation
                JOINT LeftArm
                {
                    OFFSET 12.560579 0.000000 0.000000
                    CHANNELS 3 Zrotation Xrotation Yrotation
                    JOINT LeftForeArm
                    {
                        OFFSET 28.806782 0.000000 0.000000
                        CHANNELS 3 Zrotation Xrotation Yrotation
                        JOINT LeftHand
                        {
                            OFFSET 23.813900 0.000000 0.000000
                            CHANNELS 3 Zrotation Xrotation Yrotation
                            End Site
                            {
                                OFFSET 14.421371 0.000000 0.000000
                            }
                        }
                    }
                }
            }
            JOINT RightShoulder
            {
                OFFSET -3.823061 22.323311 -0.325006
                CHANNELS 3 Zrotation Xrotation Yrotation
                JOINT RightArm
                {
                    OFFSET -12.560579 0.000000 0.000000
                    CHANNELS 3 Zrotation Xrotation Yrotation
                    JOINT RightForeArm
                    {
                        OFFSET -28.806782 0.000000 0.000000
                        CHANNELS 3 Zrotation Xrotation Yrotation
                        JOINT RightHand
                        {
                            OFFSET -23.813900 0.000000 0.000000
                            CHANNELS 3 Zrotation Xrotation Yrotation
                            End Site
                            {
                                OFFSET -14.421371 0.000000 0.000000
                            }
                        }
                    }
                }
            }
        }
    }
    JOINT LeftUpLeg
    {
        OFFSET 9.614247 0.000000 0.000000
        CHANNELS 3 Zrotation Xrotation Yrotation
        JOINT LeftLeg
        {
            OFFSET -0.000000 -41.464203 0.000000
            CHANNELS 3 Zrotation Xrotation Yrotation
            JOINT LeftFoot
            {
                OFFSET -0.000000 -34.276012 0.000000
                CHANNELS 3 Zrotation Xrotation Yrotation
                JOINT LeftToeBase
                {
                    OFFSET -0.000000 -6.249260 14.421371
                    CHANNELS 3 Zrotation Xrotation Yrotation
                    End Site
                    {
                        OFFSET -0.000000 0.000000 3.845699
                    }
                }
            }
        }
    }
    JOINT RightUpLeg
    {
        OFFSET -9.614247 0.000000 0.000000
        CHANNELS 3 Zrotation Xrotation Yrotation
        JOINT RightLeg
        {
            OFFSET -0.000000 -41.464203 0.000000
            CHANNELS 3 Zrotation Xrotation Yrotation
            JOINT RightFoot
            {
                OFFSET -0.000000 -34.276012 0.000000
                CHANNELS 3 Zrotation Xrotation Yrotation
                JOINT RightToeBase
                {
                    OFFSET -0.000000 -6.249260 14.421371
                    CHANNELS 3 Zrotation Xrotation Yrotation
                    End Site
                    {
                        OFFSET -0.000000 0.000000 3.845699
                    }
                }
            }
        }
    }
}
MOTION
Frames:    9
Frame Time:    0.004000
-13.261533    79.541031    -195.700775    1.806593    -1.697347    1.651520    -0.594926    0.682366    0.638442    -1.434954    -13.254299    0.468269    8.721650    16.858040    -1.621167    -0.649337    4.370100    -1.706538    15.503310    0.767839    6.001379    -18.948235    0.942943    -3.990716    1.658102    0.692466    0.411652    -5.884293    0.734435    -0.931647    -14.040982    -1.259953    10.388701    13.871948    -1.649259    -5.942266    -0.896362    -1.220959    -0.848488    5.029705    -1.238953    -0.257533    -0.833431    9.502460    1.286285    -9.312933    -7.644835    3.885196    7.904753    -2.141274    11.734985    0.000000    0.000000    0.000000    -1.900601    9.215695    2.006612    5.651689    -8.621520    1.696530    -5.743381    -3.335564    -10.939518    0.000000    0.000000    0.000000    
-13.231123    79.532471    -195.673996    1.787559    -1.674130    1.622890    -0.564816    0.644973    0.656834    -1.452549    -13.312738    0.484138    8.579608    16.881678    -1.647292    -0.500064    4.584684    -1.715970    15.501075    0.772359    6.013853    -18.929039    0.853641    -4.048419    1.643234    0.718782    0.465136    -5.946776    0.760670    -0.934146    -14.030755    -1.259823    10.418282    13.894117    -1.643136    -5.912990    -0.966479    -1.484429    -0.924686    6.105518    -1.494406    -0.041060    -0.833589    9.523871    1.312951    -9.324610    -7.699919    3.918641    7.927120    -2.146512    11.681845    0.000000    0.000000    0.000000    -1.914623    9.211363    2.019175    5.662298    -8.625312    1.740639    -6.028620    -3.391532    -10.842975    0.000000    0.000000    0.000000    
-13.217295    79.529915    -195.657654    1.771170    -1.672210    1.619067    -0.538412    0.634798    0.657013    -1.469802    -13.344883    0.482196    8.529609    16.898676    -1.656802    -0.465913    4.693039    -1.720805    15.508489    0.754671    6.021056    -18.915617    0.849704    -4.060122    1.638896    0.674228    0.480669    -5.973423    0.715481    -0.922144    -14.025224    -1.256072    10.442329    13.909409    -1.646312    -5.898980    -0.956657    -1.505275    -0.957334    6.091615    -1.517708    -0.083609    -0.815704    9.544090    1.314103    -9.355125    -7.707526    3.890816    7.952822    -2.175117    11.703543    0.000000    0.000000    0.000000    -1.913439    9.228732    2.029253    5.673859    -8.636974    1.750653    -5.748933    -3.370727    -10.964986    0.000000    0.000000    0.000000    
-13.201740    79.526421    -195.642349    1.765797    -1.662843    1.612804    -0.531187    0.620731    0.663901    -1.479054    -13.382282    0.487580    8.479441    16.904774    -1.672399    -0.412618    4.816704    -1.730971    15.521948    0.648964    5.951674    -18.892159    0.961887    -3.945452    1.653638    0.557656    0.456047    -6.025406    0.600426    -0.936649    -14.012882    -1.249389    10.454495    13.911997    -1.637129    -5.888076    -0.998788    -1.635774    -0.989191    6.045433    -1.650726    -0.119897    -0.821293    9.556897    1.332258    -9.353830    -7.727344    3.853424    7.931547    -2.174845    11.843495    0.000000    0.000000    0.000000    -1.925686    9.240248    2.036155    5.681629    -8.661328    1.768567    -6.077303    -3.396665    -10.857517    0.000000    0.000000    0.000000    
-13.184728    79.522118    -195.628052    1.757126    -1.649945    1.609722    -0.483067    0.629242    0.646049    -1.526798    -13.492485    0.462867    8.367539    17.008394    -1.670409    -0.314278    4.883705    -1.711163    15.483620    0.684067    5.968397    -18.833937    0.949191    -3.933908    1.661489    0.540216    0.464361    -6.080888    0.582751    -0.928454    -14.010942    -1.207776    10.561452    13.947361    -1.699191    -5.909215    -1.004453    -1.612274    -1.021122    6.055692    -1.628877    -0.144691    -0.819120    9.565994    1.336988    -9.371052    -7.745584    3.846392    7.949306    -2.196609    11.856579    0.000000    0.000000    0.000000    -1.935681    9.243224    2.033427    5.692523    -8.663512    1.808854    -6.068472    -3.418857    -10.881433    0.000000    0.000000    0.000000    
-13.170221    79.520294    -195.616577    1.753147    -1.621811    1.614238    -0.481723    0.591176    0.642145    -1.521811    -13.515532    0.459438    8.313209    17.006336    -1.673579    -0.278268    4.998473    -1.711173    15.478927    0.667557    5.983909    -18.820225    0.955468    -3.955225    1.658689    0.519855    0.492712    -6.147314    0.564113    -0.956372    -14.017151    -1.203089    10.586715    13.963062    -1.689129    -5.907231    -0.998299    -1.608986    -1.037217    6.074731    -1.626274    -0.155084    -0.820620    9.557206    1.333466    -9.380881    -7.761132    3.837586    7.989649    -2.190790    11.715639    0.000000    0.000000    0.000000    -1.952700    9.239133    2.051222    5.712922    -8.697182    1.819077    -5.743415    -3.376294    -11.042365    0.000000    0.000000    0.000000    
-13.154758    79.517036    -195.603821    1.745616    -1.601174    1.617662    -0.471764    0.572173    0.644001    -1.525877    -13.563145    0.460246    8.254216    17.021852    -1.685930    -0.230190    5.104397    -1.718198    15.478479    0.657362    5.979380    -18.810467    0.928062    -3.966227    1.629325    0.574444    0.523261    -6.192516    0.618660    -0.954517    -14.017993    -1.208142    10.600351    13.976939    -1.657030    -5.900926    -0.883296    -1.307354    -1.046273    4.759042    -1.343603    -0.678194    -0.823058    9.549996    1.355897    -9.385901    -7.770089    3.833227    8.003303    -2.200826    11.674628    0.000000    0.000000    0.000000    -1.965071    9.239527    2.068708    5.727967    -8.719575    1.818348    -5.747322    -3.381689    -11.049908    0.000000    0.000000    0.000000    
-13.138294    79.515564    -195.589478    1.744935    -1.580675    1.624410    -0.467774    0.543868    0.642262    -1.535273    -13.593980    0.457139    8.198086    17.037226    -1.699882    -0.179175    5.196109    -1.726820    15.487315    0.643831    5.990953    -18.813303    0.917874    -3.988904    1.637255    0.577267    0.543747    -6.247889    0.621882    -0.960248    -14.021375    -1.213395    10.619514    13.995650    -1.654493    -5.900323    -0.857975    -1.274260    -1.064119    4.679560    -1.311005    -0.704377    -0.831622    9.551053    1.366722    -9.388662    -7.796797    3.808436    7.999574    -2.183665    11.686878    0.000000    0.000000    0.000000    -1.981630    9.244631    2.064646    5.740131    -8.740985    1.833159    -5.746525    -3.387641    -11.072570    0.000000    0.000000    0.000000    
-13.122720    79.513931    -195.577621    1.742499    -1.561905    1.635605    -0.463923    0.570594    0.665550    -1.542514    -13.720825    0.477719    8.177850    17.086084    -1.739270    -0.167865    5.273245    -1.762961    15.521316    0.727758    5.895154    -18.869106    0.833014    -3.965187    1.694014    0.497409    0.529066    -6.316032    0.543259    -0.972794    -14.041066    -1.160775    10.551973    14.030304    -1.631522    -5.854584    -0.863486    -1.271575    -1.078950    4.689421    -1.309724    -0.732990    -0.833871    9.547789    1.381933    -9.406885    -7.804140    3.799373    8.032182    -2.187869    11.654445    0.000000    0.000000    0.000000    -1.999678    9.250849    2.084998    5.753486    -8.776536    1.829342    -5.732088    -3.367440    -11.087526    0.000000    0.000000    0.000000    
